<?xml version="1.0" encoding="UTF-8" standalone="no"?>
<!-- Created with Inkscape (http://www.inkscape.org/) -->

<svg
   width="32"
   height="32"
   viewBox="0 0 8.4666665 8.4666666"
   version="1.1"
   id="svg1"
   xml:space="preserve"
   inkscape:version="1.4 (86a8ad7, 2024-10-11)"
   sodipodi:docname="control_sound.svg"
   inkscape:export-filename="..\control_sound.svg"
   inkscape:export-xdpi="96"
   inkscape:export-ydpi="96"
   xmlns:inkscape="http://www.inkscape.org/namespaces/inkscape"
   xmlns:sodipodi="http://sodipodi.sourceforge.net/DTD/sodipodi-0.dtd"
   xmlns="http://www.w3.org/2000/svg"
   xmlns:svg="http://www.w3.org/2000/svg"><sodipodi:namedview
     id="namedview1"
     pagecolor="#ffffff"
     bordercolor="#000000"
     borderopacity="0.25"
     inkscape:showpageshadow="2"
     inkscape:pageopacity="0.0"
     inkscape:pagecheckerboard="0"
     inkscape:deskcolor="#d1d1d1"
     inkscape:document-units="mm"
     inkscape:zoom="11.160606"
     inkscape:cx="20.5186"
     inkscape:cy="10.976107"
     inkscape:window-width="1680"
     inkscape:window-height="1027"
     inkscape:window-x="-8"
     inkscape:window-y="-8"
     inkscape:window-maximized="1"
     inkscape:current-layer="svg1"
     showgrid="false" /><defs
     id="defs1"><inkscape:perspective
       sodipodi:type="inkscape:persp3d"
       inkscape:vp_x="0 : -140.03333 : 1"
       inkscape:vp_y="0 : 999.99997 : 0"
       inkscape:vp_z="210 : -140.03333 : 1"
       inkscape:persp3d-origin="105 : -189.53333 : 1"
       id="perspective2" /></defs><path
     id="path20"
     style="fill:none;fill-opacity:1;stroke:#af9dd9;stroke-width:0.761;stroke-linejoin:round;stroke-dasharray:none;stroke-opacity:1;paint-order:stroke fill markers;stroke-linecap:square"
     d="M 7.9487052,6.0596817 7.9490079,7.9490079 6.0596816,7.9487062 M 0.51796146,2.406985 0.51765879,0.51765879 2.4069851,0.51796045" /><g
     id="g20"
     transform="matrix(2.7493169,0,0,2.7493169,1.0372524,0.93279079)"
     style="fill:#af9dd9;fill-opacity:1;stroke:none"><path
       fill="#e0e0e0"
       d="M 1.252,0.15 A 0.1,0.1 0 0 0 1.17,0.18 L 0.6,0.75 H 0.318 C 0.225,0.75 0.15,0.817 0.15,0.9 v 0.6 c 0,0.083 0.075,0.15 0.168,0.15 H 0.6 L 1.17,2.22 C 1.236,2.287 1.35,2.24 1.35,2.146 V 0.256 A 0.106,0.106 0 0 0 1.252,0.15"
       paint-order="markers stroke fill"
       id="path1"
       style="fill:#af9dd9;fill-opacity:1;stroke:none" /><path
       fill="none"
       stroke="#e0e0e0"
       stroke-linecap="round"
       stroke-linejoin="round"
       stroke-width="0.165"
       d="m 1.575,0.675 c 0.45,0.525 0,1.05 0,1.05 m 0.3,-1.35 c 0.675,0.825 0,1.65 0,1.65"
       paint-order="markers stroke fill"
       id="path2"
       style="fill:#af9dd9;fill-opacity:1;stroke:none" /></g></svg>
