<?xml version="1.0" encoding="UTF-8" standalone="no"?>
<!-- Created with Inkscape (http://www.inkscape.org/) -->

<svg
   width="32"
   height="32"
   viewBox="0 0 8.4666665 8.4666666"
   version="1.1"
   id="svg1"
   xml:space="preserve"
   inkscape:version="1.4 (86a8ad7, 2024-10-11)"
   sodipodi:docname="control_particles.svg"
   inkscape:export-filename="..\control_particles.svg"
   inkscape:export-xdpi="96"
   inkscape:export-ydpi="96"
   xmlns:inkscape="http://www.inkscape.org/namespaces/inkscape"
   xmlns:sodipodi="http://sodipodi.sourceforge.net/DTD/sodipodi-0.dtd"
   xmlns="http://www.w3.org/2000/svg"
   xmlns:svg="http://www.w3.org/2000/svg"><sodipodi:namedview
     id="namedview1"
     pagecolor="#ffffff"
     bordercolor="#000000"
     borderopacity="0.25"
     inkscape:showpageshadow="2"
     inkscape:pageopacity="0.0"
     inkscape:pagecheckerboard="0"
     inkscape:deskcolor="#d1d1d1"
     inkscape:document-units="mm"
     inkscape:zoom="15.78348"
     inkscape:cx="17.264887"
     inkscape:cy="15.617595"
     inkscape:window-width="1680"
     inkscape:window-height="1027"
     inkscape:window-x="-8"
     inkscape:window-y="-8"
     inkscape:window-maximized="1"
     inkscape:current-layer="svg1" /><defs
     id="defs1"><inkscape:perspective
       sodipodi:type="inkscape:persp3d"
       inkscape:vp_x="0 : -140.03333 : 1"
       inkscape:vp_y="0 : 999.99997 : 0"
       inkscape:vp_z="210 : -140.03333 : 1"
       inkscape:persp3d-origin="105 : -189.53333 : 1"
       id="perspective2" /></defs><path
     id="path20"
     style="fill:none;fill-opacity:1;stroke:#af9dd9;stroke-width:0.761;stroke-linejoin:round;stroke-dasharray:none;stroke-opacity:1;paint-order:stroke fill markers;stroke-linecap:square"
     d="M 7.9487052,6.0596817 7.9490079,7.9490079 6.0596816,7.9487062 M 0.51796146,2.406985 0.51765879,0.51765879 2.4069851,0.51796045" /><path
     fill="#8da5f3"
     d="M 2.8649478,1.2248091 A 0.30622336,0.30622336 0 0 0 2.5587244,1.5310325 V 1.771522 H 2.0777453 A 0.30622336,0.30622336 0 0 0 1.7715219,2.0777453 V 2.5587244 H 1.5310323 A 0.30622336,0.30622336 0 0 0 1.2248091,2.8649478 V 3.0252741 A 0.30622336,0.30622336 0 0 0 1.5310323,3.3314975 H 1.7715219 V 5.1351691 H 1.5310323 A 0.30622336,0.30622336 0 0 0 1.2248091,5.4413924 V 5.6017189 A 0.30622336,0.30622336 0 0 0 1.5310323,5.9079421 H 1.7715219 V 6.3889212 A 0.30622336,0.30622336 0 0 0 2.0777453,6.6951446 H 2.5587244 V 6.9356342 A 0.30622336,0.30622336 0 0 0 2.8649478,7.2418576 H 3.0252741 A 0.30622336,0.30622336 0 0 0 3.3314975,6.9356342 V 6.6951446 H 5.1351691 V 6.9356342 A 0.30622336,0.30622336 0 0 0 5.4413924,7.2418576 H 5.6017188 A 0.30622336,0.30622336 0 0 0 5.9079421,6.9356342 V 6.6951446 H 6.3889212 A 0.30622336,0.30622336 0 0 0 6.6951446,6.3889212 V 5.9079421 H 6.9356341 A 0.30622336,0.30622336 0 0 0 7.2418575,5.6017189 V 5.4413924 A 0.30622336,0.30622336 0 0 0 6.9356341,5.1351691 H 6.6951446 V 3.3314975 H 6.9356341 A 0.30622336,0.30622336 0 0 0 7.2418575,3.0252741 V 2.8649478 A 0.30622336,0.30622336 0 0 0 6.9356341,2.5587244 H 6.6951446 V 2.0777453 A 0.30622336,0.30622336 0 0 0 6.3889212,1.7719229 H 5.9079421 V 1.5314333 A 0.30622336,0.30622336 0 0 0 5.6017188,1.2252099 H 5.4413924 A 0.30622336,0.30622336 0 0 0 5.1351691,1.5314333 V 1.7719229 H 3.3314975 V 1.5314333 A 0.30622336,0.30622336 0 0 0 3.0252741,1.2252099 Z M 5.5003124,3.3491333 A 0.87618359,0.87618359 0 0 1 5.3800676,5.0922817 H 3.0433107 A 0.87618359,0.87618359 0 0 1 2.923066,3.3491333 a 1.3146762,1.4605732 0 0 1 2.5788496,0 z M 3.0645541,5.4333762 a 0.29239521,0.29239521 0 0 1 0,0.5847903 0.29239521,0.29239521 0 0 1 0,-0.5847903 z m 2.3367567,0 a 0.29239521,0.29239521 0 0 1 0,0.5847903 0.29239521,0.29239521 0 0 1 0,-0.5847903 z M 4.2333333,5.7255709 a 0.29239522,0.29239522 0 0 1 0,0.5847904 0.29259564,0.29259564 0 0 1 0,-0.5851912 z"
     id="path1"
     style="fill:#af9dd9;fill-opacity:1;stroke-width:0.400815" /></svg>
