<?xml version="1.0" encoding="UTF-8" standalone="no"?>
<!-- Created with Inkscape (http://www.inkscape.org/) -->

<svg
   width="32"
   height="32"
   viewBox="0 0 8.4666665 8.4666666"
   version="1.1"
   id="svg5"
   inkscape:version="1.2.2 (732a01da63, 2022-12-09)"
   sodipodi:docname="cooldown.svg"
   inkscape:export-filename="..\cooldown.svg"
   inkscape:export-xdpi="96"
   inkscape:export-ydpi="96"
   xmlns:inkscape="http://www.inkscape.org/namespaces/inkscape"
   xmlns:sodipodi="http://sodipodi.sourceforge.net/DTD/sodipodi-0.dtd"
   xmlns="http://www.w3.org/2000/svg"
   xmlns:svg="http://www.w3.org/2000/svg">
  <sodipodi:namedview
     id="namedview7"
     pagecolor="#ffffff"
     bordercolor="#000000"
     borderopacity="0.25"
     inkscape:showpageshadow="2"
     inkscape:pageopacity="0.0"
     inkscape:pagecheckerboard="0"
     inkscape:deskcolor="#d1d1d1"
     inkscape:document-units="mm"
     showgrid="false"
     inkscape:zoom="5.6568543"
     inkscape:cx="34.206291"
     inkscape:cy="5.7452426"
     inkscape:window-width="1680"
     inkscape:window-height="988"
     inkscape:window-x="-8"
     inkscape:window-y="-8"
     inkscape:window-maximized="1"
     inkscape:current-layer="layer1" />
  <defs
     id="defs2">
    <inkscape:path-effect
       effect="fillet_chamfer"
       id="path-effect2296"
       is_visible="true"
       lpeversion="1"
       nodesatellites_param="F,0,0,1,0,0,0,1 @ F,0,1,1,0,0.76004772,0,1 @ F,0,1,1,0,0.76004772,0,1 @ F,0,0,1,0,0.76004772,0,1 @ F,0,0,1,0,0,0,1"
       unit="px"
       method="auto"
       mode="F"
       radius="0"
       chamfer_steps="1"
       flexible="false"
       use_knot_distance="true"
       apply_no_radius="true"
       apply_with_radius="true"
       only_selected="false"
       hide_knots="false" />
  </defs>
  <g
     inkscape:label="Layer 1"
     inkscape:groupmode="layer"
     id="layer1">
    <path
       id="rect234"
       style="fill:#af9dd9;stroke-width:0.0728371;stroke-linecap:square;stroke-linejoin:round"
       d="m 0.83664223,3.9307981 v 3.925192 H 7.6300244 V 3.9307981 Z M 4.210843,4.7709541 c 0.00727,-1.865e-4 0.014337,0 0.021626,0 0.4672375,1.47e-5 0.850287,0.3830646 0.8503022,0.850302 -1.04e-5,0.3212259 -0.181357,0.6034451 -0.4463438,0.7482312 V 7.4472867 H 3.8302399 V 6.3703523 C 3.5648269,6.2258476 3.3839063,5.9431774 3.3838961,5.6212561 3.3839108,5.1613191 3.7536152,4.782691 4.210843,4.7709541 Z"
       sodipodi:nodetypes="cccccscccccccs" />
    <g
       id="path2350"
       style="fill:#000000;stroke:none"
       transform="matrix(0.59406392,0,0,0.59406392,1.7184892,2.018479)" />
    <path
       style="color:#000000;fill:#af9dd9;stroke:#af9dd9;stroke-width:0.208989;stroke-linecap:square;stroke-dasharray:none;stroke-opacity:1"
       d="m 6.7018813,4.0716307 v -0.861264 c 0,-0.8904311 -0.4758598,-1.7161076 -1.2469957,-2.1613231 -0.7711358,-0.44521557 -1.7228554,-0.44521553 -2.4939914,0 -0.7711359,0.4452155 -1.2469957,1.270892 -1.2469957,2.1613231 v 0.861264 H 2.403726 v -0.861264 c 0,-0.6455154 0.3430493,-1.240579 0.902082,-1.5633367 0.5590327,-0.3227577 1.2471721,-0.3227577 1.8062048,0 0.5590328,0.3227577 0.902082,0.9178213 0.902082,1.5633367 v 0.861264 z"
       id="path4767"
       sodipodi:nodetypes="cssssccsssscc" />
  </g>
</svg>
